<svg xmlns="http://www.w3.org/2000/svg" width="28.482" height="28.482" viewBox="0 0 28.482 28.482"><defs><style>.a{fill:#fff;}.b{fill:#52c381;}</style></defs><g transform="translate(0 0)"><ellipse class="a" cx="1.527" cy="1.145" rx="1.527" ry="1.145" transform="translate(0 12.98)"/><ellipse class="a" cx="1.378" cy="1.378" rx="1.378" ry="1.378" transform="translate(1.332 8.315) rotate(-60)"/><ellipse class="a" cx="1.378" cy="1.378" rx="1.378" ry="1.378" transform="translate(5.926 2.71) rotate(-30)"/><ellipse class="a" cx="1.378" cy="1.378" rx="1.378" ry="1.378" transform="translate(5.925 25.772) rotate(-60)"/><ellipse class="a" cx="1.378" cy="1.378" rx="1.378" ry="1.378" transform="translate(1.332 20.166) rotate(-30)"/><path class="a" d="M50,19v2.756a11.484,11.484,0,1,1,0,22.969v2.756A14.241,14.241,0,1,0,50,19Z" transform="translate(-35.759 -19)"/><path class="a" d="M46.365,39.88l-6.376,6.376L36.828,43.1,34.88,45.043l4.134,4.134a1.378,1.378,0,0,0,1.948,0l7.35-7.35Z" transform="translate(-27.585 -30.288)"/></g><g transform="translate(0 0)"><ellipse class="b" cx="1.527" cy="1.145" rx="1.527" ry="1.145" transform="translate(0 12.98)"/><ellipse class="b" cx="1.378" cy="1.378" rx="1.378" ry="1.378" transform="translate(1.332 8.315) rotate(-60)"/><ellipse class="b" cx="1.378" cy="1.378" rx="1.378" ry="1.378" transform="translate(5.926 2.71) rotate(-30)"/><ellipse class="b" cx="1.378" cy="1.378" rx="1.378" ry="1.378" transform="translate(5.925 25.772) rotate(-60)"/><ellipse class="b" cx="1.378" cy="1.378" rx="1.378" ry="1.378" transform="translate(1.332 20.166) rotate(-30)"/><path class="b" d="M50,19v2.756a11.484,11.484,0,1,1,0,22.969v2.756A14.241,14.241,0,1,0,50,19Z" transform="translate(-35.759 -19)"/><path class="b" d="M46.365,39.88l-6.376,6.376L36.828,43.1,34.88,45.043l4.134,4.134a1.378,1.378,0,0,0,1.948,0l7.35-7.35Z" transform="translate(-27.585 -30.288)"/></g></svg>